<?xml version="1.0" encoding="UTF-8"?>
<svg id="Layer_2" data-name="Layer 2" xmlns="http://www.w3.org/2000/svg" viewBox="0 0 2791.79 731.83">
  <defs>
    <style>
      .cls-1 {
        fill: #622d01;
      }
    </style>
  </defs>
  <g id="Layer_1-2" data-name="Layer 1">
    <g>
      <g>
        <path class="cls-1" d="M880.19,608.72V243.2h60.05v365.52h-60.05Zm220.87,0l-169.18-190.59,165.52-174.93h76.76l-182.76,190.07v-32.9l187.98,208.34h-78.33Z"/>
        <path class="cls-1" d="M1239.43,312.13c-9.75,0-17.84-3.3-24.28-9.92-6.44-6.61-9.66-14.79-9.66-24.54s3.22-17.92,9.66-24.54c6.44-6.61,14.53-9.92,24.28-9.92s18.28,3.31,24.54,9.92c6.27,6.62,9.4,14.8,9.4,24.54s-3.13,17.93-9.4,24.54c-6.27,6.62-14.45,9.92-24.54,9.92Zm-28.72,296.59v-250.64h57.44v250.64h-57.44Z"/>
        <path class="cls-1" d="M1319.32,608.72V232.76h57.44v186.94l-9.92,60.57,9.92,61.09v67.36h-57.44Zm134.2,5.22c-19.15,0-36.21-4.09-51.17-12.27-14.97-8.18-26.72-19.4-35.25-33.68-8.54-14.27-12.8-30.46-12.8-48.56v-72.06c0-18.09,4.35-34.28,13.06-48.56,8.7-14.27,20.53-25.49,35.51-33.68,14.96-8.18,31.85-12.27,50.65-12.27,22.63,0,43.08,5.83,61.36,17.49,18.28,11.67,32.71,27.33,43.34,47,10.62,19.67,15.93,41.86,15.93,66.57s-5.31,46.39-15.93,66.05c-10.62,19.67-25.06,35.25-43.34,46.74-18.28,11.48-38.73,17.23-61.36,17.23Zm-9.4-54.3c13.92,0,26.19-3.22,36.81-9.66,10.61-6.44,18.97-15.4,25.06-26.89,6.08-11.49,9.14-24.71,9.14-39.68s-3.06-28.2-9.14-39.69c-6.1-11.49-14.45-20.44-25.06-26.89-10.62-6.44-22.89-9.66-36.81-9.66s-26.29,3.22-37.08,9.66c-10.79,6.45-19.15,15.4-25.06,26.89-5.92,11.49-8.88,24.72-8.88,39.69s2.95,28.19,8.88,39.68c5.91,11.49,14.27,20.45,25.06,26.89,10.79,6.44,23.15,9.66,37.08,9.66Z"/>
        <path class="cls-1" d="M1714.06,613.94c-22.63,0-43.08-5.74-61.36-17.23-18.28-11.49-32.72-27.06-43.34-46.74-10.62-19.66-15.93-41.68-15.93-66.05s5.3-46.91,15.93-66.57c10.61-19.67,25.06-35.33,43.34-47,18.28-11.66,38.72-17.49,61.36-17.49,19.14,0,36.11,4.09,50.91,12.27,14.79,8.18,26.54,19.4,35.25,33.68,8.7,14.28,13.06,30.47,13.06,48.56v72.06c0,18.1-4.27,34.29-12.8,48.56-8.53,14.28-20.28,25.51-35.25,33.68-14.97,8.17-32.03,12.27-51.17,12.27Zm9.4-54.3c21.23,0,38.38-7.13,51.43-21.41,13.05-14.27,19.58-32.55,19.58-54.83,0-14.97-2.96-28.2-8.88-39.69-5.92-11.49-14.19-20.44-24.8-26.89-10.62-6.44-23.07-9.66-37.34-9.66s-26.2,3.22-36.81,9.66c-10.62,6.45-18.98,15.4-25.07,26.89-6.1,11.49-9.14,24.72-9.14,39.69s3.04,28.19,9.14,39.68c6.08,11.49,14.44,20.45,25.07,26.89,10.61,6.44,22.88,9.66,36.81,9.66Zm67.36,49.08v-67.36l9.92-61.09-9.92-60.57v-61.62h57.44v250.64h-57.44Z"/>
        <path class="cls-1" d="M1898.9,608.72v-250.64h57.44v250.64h-57.44Zm166.57,0v-149.34c0-16.71-5.22-29.67-15.67-38.9-10.44-9.22-23.32-13.84-38.64-13.84-10.44,0-19.76,2.09-27.94,6.27-8.18,4.18-14.71,10.18-19.58,18.02-4.88,7.83-7.31,17.32-7.31,28.45l-22.46-12.53c0-19.14,4.18-35.67,12.53-49.6,8.35-13.92,19.66-24.8,33.94-32.63,14.27-7.83,30.28-11.75,48.04-11.75s33.76,3.83,48.04,11.48c14.27,7.66,25.59,18.46,33.94,32.38,8.35,13.92,12.53,30.63,12.53,50.12v161.87h-57.43Zm166.57,0v-149.34c0-16.71-5.22-29.67-15.66-38.9-10.45-9.22-23.33-13.84-38.64-13.84-10.1,0-19.32,2.09-27.67,6.27-8.35,4.18-14.97,10.18-19.84,18.02-4.88,7.83-7.31,17.32-7.31,28.45l-32.37-12.53c1.74-19.14,7.31-35.67,16.71-49.6,9.4-13.92,21.49-24.8,36.29-32.63,14.79-7.83,31.07-11.75,48.82-11.75s34.46,3.83,49.08,11.48c14.62,7.66,26.28,18.46,34.99,32.38,8.7,13.92,13.05,30.63,13.05,50.12v161.87h-57.44Z"/>
        <path class="cls-1" d="M2440.38,613.94c-22.64,0-43.08-5.74-61.36-17.23-18.28-11.49-32.72-27.06-43.34-46.74-10.62-19.66-15.93-41.68-15.93-66.05s5.3-46.91,15.93-66.57c10.62-19.67,25.07-35.33,43.34-47,18.28-11.66,38.72-17.49,61.36-17.49,19.14,0,36.11,4.09,50.91,12.27,14.79,8.18,26.54,19.4,35.25,33.68,8.7,14.28,13.05,30.47,13.05,48.56v72.06c0,18.1-4.27,34.29-12.79,48.56-8.54,14.28-20.28,25.51-35.25,33.68-14.97,8.17-32.03,12.27-51.17,12.27Zm9.4-54.3c21.23,0,38.38-7.13,51.43-21.41,13.05-14.27,19.58-32.55,19.58-54.83,0-14.97-2.96-28.2-8.88-39.69-5.92-11.49-14.19-20.44-24.8-26.89-10.62-6.44-23.07-9.66-37.33-9.66s-26.2,3.22-36.81,9.66c-10.62,6.45-18.98,15.4-25.06,26.89-6.1,11.49-9.14,24.72-9.14,39.69s3.05,28.19,9.14,39.68c6.08,11.49,14.44,20.45,25.06,26.89,10.61,6.44,22.88,9.66,36.81,9.66Zm67.36,49.08v-67.36l9.92-61.09-9.92-60.57v-61.62h57.44v250.64h-57.44Z"/>
        <path class="cls-1" d="M2654.46,312.13c-9.75,0-17.85-3.3-24.28-9.92-6.45-6.61-9.66-14.79-9.66-24.54s3.22-17.92,9.66-24.54c6.43-6.61,14.53-9.92,24.28-9.92s18.28,3.31,24.54,9.92c6.26,6.62,9.4,14.8,9.4,24.54s-3.14,17.93-9.4,24.54c-6.27,6.62-14.45,9.92-24.54,9.92Zm-28.72,296.59v-250.64h57.44v250.64h-57.44Z"/>
        <path class="cls-1" d="M2734.35,608.72V232.76h57.44v375.96h-57.44Z"/>
      </g>
      <g>
        <path class="cls-1" d="M694.9,116.3c-39.74-1.05-130.59,37.42-191.63,65.64-13.33-10.36-27.5-19.72-42.45-27.85,33.54-11.63,53.12-32.46,47.36-53.38-7.4-26.88-38.5-16.61-38.5-16.61,72.94-48.4,40.91-94.21-2.37-82.14-38.44,10.72-129.12,95.49-148.97,114.36-2.35-.05-4.69-.18-7.06-.18C139.64,116.14,0,254.24,0,423.99s139.64,307.84,311.28,307.84,311.28-138.1,311.28-307.84c0-38-7.04-74.38-19.83-108.01,60.56,3.87,105.13-17.07,106.16-51.47,1.16-38.82-44.46-37.87-44.46-37.87,116.91-34.58,93.04-108.68,30.46-110.33ZM284.92,636.9c-45.9,0-87.48-24.58-117.54-64.2-14.22,14.32-30.58,22.58-48.03,22.58-54.18,0-98.27-78.85-98.27-175.77s44.08-175.77,98.27-175.77c17.44,0,33.81,8.26,48.03,22.58,30.06-39.62,71.64-64.2,117.54-64.2,91.45,0,165.86,97.52,165.86,217.39s-74.4,217.39-165.86,217.39Z"/>
        <ellipse class="cls-1" cx="289.58" cy="401.83" rx="75.57" ry="99.86"/>
        <ellipse class="cls-1" cx="103.02" cy="393.67" rx="41.83" ry="76.94"/>
        <path class="cls-1" d="M194.02,506.89c-.32,9.41-2.19,18.44-5.37,26.78-11.85-7.23-25.65-11.59-40.5-12.09-28.96-.97-54.97,12.94-70.65,34.88-6.94-12.69-10.69-27.32-10.17-42.84,1.55-46.01,40.09-82.05,86.1-80.51,.36,.01,.74,.02,1.1,.06,24.55,15.2,40.52,42.75,39.48,73.71Z"/>
      </g>
    </g>
  </g>
</svg>